<!DOCTYPE svg PUBLIC "-//W3C//DTD SVG 1.1//EN" "http://www.w3.org/Graphics/SVG/1.1/DTD/svg11.dtd">
<!-- Uploaded to: SVG Repo, www.svgrepo.com, Transformed by: SVG Repo Mixer Tools -->
<svg width="800px" height="800px" viewBox="0 -3.96 20 20" xmlns="http://www.w3.org/2000/svg" fill="#000000">
<g id="SVGRepo_bgCarrier" stroke-width="0"/>
<g id="SVGRepo_tracerCarrier" stroke-linecap="round" stroke-linejoin="round"/>
<g id="SVGRepo_iconCarrier"> <g id="mask-3" transform="translate(-2 -6)"> <path id="secondary" fill="#b0b0b0" d="M15.63,8H16a1,1,0,0,1,1,1v4a4,4,0,0,1-3.5,4,14.1,14.1,0,0,1-3,0A4,4,0,0,1,7,13V9A1,1,0,0,1,8,8h.37a2.63,2.63,0,0,0,1.55-.5h0A2.61,2.61,0,0,1,11.47,7h1.06a2.61,2.61,0,0,1,1.55.5h0a2.63,2.63,0,0,0,1.55.5Z"/> <path id="primary" d="M17,14h2a2,2,0,0,0,0-4H17.16" fill="none" stroke="#000000" stroke-linecap="round" stroke-linejoin="round" stroke-width="2"/> <path id="primary-2" data-name="primary" d="M6.84,10H5a2,2,0,0,0,0,4H7" fill="none" stroke="#000000" stroke-linecap="round" stroke-linejoin="round" stroke-width="2"/> <path id="primary-3" data-name="primary" d="M15.63,8H16a1,1,0,0,1,1,1v4a4,4,0,0,1-3.5,4,14.1,14.1,0,0,1-3,0A4,4,0,0,1,7,13V9A1,1,0,0,1,8,8h.37a2.63,2.63,0,0,0,1.55-.5h0A2.61,2.61,0,0,1,11.47,7h1.06a2.61,2.61,0,0,1,1.55.5h0a2.63,2.63,0,0,0,1.55.5Z" fill="none" stroke="#000000" stroke-linecap="round" stroke-linejoin="round" stroke-width="2"/> </g> </g>
</svg>